<svg width="960" height="560" viewBox="0 0 960 560" fill="none" xmlns="http://www.w3.org/2000/svg">
  <rect width="960" height="560" rx="32" fill="#050816"/>
  <rect x="34" y="34" width="892" height="492" rx="28" fill="url(#bg)"/>
  <rect x="100" y="94" width="760" height="372" rx="28" fill="#081020" stroke="#26385E"/>
  <rect x="142" y="140" width="276" height="280" rx="24" fill="#101936"/>
  <rect x="458" y="140" width="360" height="80" rx="22" fill="#101936"/>
  <rect x="458" y="250" width="166" height="170" rx="22" fill="#101936"/>
  <rect x="652" y="250" width="166" height="170" rx="22" fill="#101936"/>
  <path d="M184 350L248 284L304 320L374 236" stroke="#1EA7FF" stroke-width="14" stroke-linecap="round" stroke-linejoin="round"/>
  <rect x="496" y="170" width="190" height="14" rx="7" fill="#8B1CFF"/>
  <rect x="496" y="292" width="80" height="80" rx="18" fill="#8B1CFF" fill-opacity=".24" stroke="#8B1CFF"/>
  <rect x="696" y="292" width="80" height="80" rx="18" fill="#1EA7FF" fill-opacity=".18" stroke="#1EA7FF"/>
  <defs><linearGradient id="bg" x1="34" y1="34" x2="926" y2="526"><stop stop-color="#091324"/><stop offset=".45" stop-color="#120D35"/><stop offset="1" stop-color="#061A31"/></linearGradient></defs>
</svg>
